<svg id="Layer_1" enable-background="new 0 0 512 512" height="512" viewBox="0 0 512 512" width="512" xmlns="http://www.w3.org/2000/svg"><g><path d="m97.608 129.593c-8.194 0-16.389-3.119-22.627-9.358-12.477-12.477-12.477-32.778 0-45.254 12.478-12.478 32.779-12.477 45.254 0 12.477 12.477 12.477 32.778 0 45.254-6.238 6.239-14.432 9.358-22.627 9.358zm0-31.985c-.01.01-.014.015-.014.015z" fill="#acebe2"/><path d="m148.52 164.52c-4.095 0-8.189-1.562-11.313-4.687l-39.6-39.6c-6.249-6.248-6.249-16.379 0-22.627 6.248-6.249 16.379-6.249 22.627 0l39.6 39.6c6.249 6.248 6.249 16.379 0 22.627-3.125 3.125-7.219 4.687-11.314 4.687z" fill="#98d7ce"/><path d="m97.608 446.377c-8.194 0-16.389-3.119-22.627-9.358-12.477-12.477-12.477-32.778 0-45.254 12.478-12.478 32.779-12.477 45.254 0 12.477 12.477 12.477 32.778 0 45.254-6.238 6.239-14.432 9.358-22.627 9.358zm0-31.985c.01.01.015.014.015.014z" fill="#acebe2"/><path d="m108.92 419.08c-4.095 0-8.189-1.562-11.313-4.687-6.249-6.248-6.249-16.379 0-22.627l39.6-39.6c6.248-6.249 16.379-6.249 22.627 0 6.249 6.248 6.249 16.379 0 22.627l-39.6 39.6c-3.125 3.125-7.219 4.687-11.314 4.687z" fill="#98d7ce"/><path d="m414.392 446.377c-8.195 0-16.389-3.119-22.627-9.358-12.477-12.477-12.477-32.778 0-45.254 12.477-12.477 32.778-12.478 45.254 0 12.477 12.477 12.477 32.778 0 45.254-6.238 6.239-14.433 9.358-22.627 9.358zm.014-32-.014.015c.01-.01.014-.015.014-.015z" fill="#acebe2"/><path d="m403.08 419.08c-4.095 0-8.189-1.562-11.313-4.687l-39.6-39.6c-6.249-6.248-6.249-16.379 0-22.627 6.248-6.249 16.379-6.249 22.627 0l39.6 39.6c6.249 6.248 6.249 16.379 0 22.627-3.124 3.125-7.219 4.687-11.314 4.687z" fill="#98d7ce"/><path d="m414.392 129.593c-8.195 0-16.389-3.119-22.627-9.358-12.477-12.477-12.477-32.778 0-45.254 12.477-12.477 32.778-12.478 45.254 0 12.477 12.477 12.477 32.778 0 45.254-6.238 6.239-14.433 9.358-22.627 9.358zm-.015-31.999.015.014c-.01-.01-.015-.014-.015-.014z" fill="#acebe2"/><path d="m363.48 164.52c-4.095 0-8.189-1.562-11.313-4.687-6.249-6.248-6.249-16.379 0-22.627l39.6-39.6c6.248-6.249 16.379-6.249 22.627 0 6.249 6.248 6.249 16.379 0 22.627l-39.6 39.6c-3.125 3.125-7.219 4.687-11.314 4.687z" fill="#98d7ce"/><path d="m88 256c0 87.24 66.83 159.16 152 167.24 5.26.5 10.6.76 16 .76 92.64 0 168-75.36 168-168s-75.36-168-168-168c-5.4 0-10.74.26-16 .76-85.17 8.08-152 80-152 167.24z" fill="#acebe2"/><g fill="#98d7ce"><path d="m424 256c0 92.64-75.36 168-168 168-5.4 0-10.74-.26-16-.76 85.17-8.08 152-80 152-167.24s-66.83-159.16-152-167.24c5.26-.5 10.6-.76 16-.76 92.64 0 168 75.36 168 168z"/><path d="m464 272h-80c-8.836 0-16-7.164-16-16s7.164-16 16-16h80c8.836 0 16 7.164 16 16s-7.164 16-16 16z"/><path d="m128 272h-80c-8.836 0-16-7.164-16-16s7.164-16 16-16h80c8.836 0 16 7.164 16 16s-7.164 16-16 16z"/><path d="m256 480c-8.836 0-16-7.164-16-16v-80c0-8.836 7.164-16 16-16s16 7.164 16 16v80c0 8.836-7.164 16-16 16z"/><path d="m256 144c-8.836 0-16-7.164-16-16v-80c0-8.836 7.164-16 16-16s16 7.164 16 16v80c0 8.836-7.164 16-16 16z"/><circle cx="203" cy="220" r="28"/><path d="m272 344c-17.645 0-32-14.355-32-32s14.355-32 32-32 32 14.355 32 32-14.355 32-32 32zm-.001-32.02.001.02c0-.014-.001-.02-.001-.02z"/><circle cx="328" cy="208" r="24"/></g><path d="m480 288c-17.645 0-32-14.355-32-32s14.355-32 32-32 32 14.355 32 32-14.355 32-32 32zm-.001-32.02.001.02c0-.014-.001-.02-.001-.02z" fill="#acebe2"/><path d="m32 288c-17.645 0-32-14.355-32-32s14.355-32 32-32 32 14.355 32 32-14.355 32-32 32zm0-32c0 .014.001.02.001.02z" fill="#acebe2"/><path d="m256 512c-17.645 0-32-14.355-32-32s14.355-32 32-32 32 14.355 32 32-14.355 32-32 32zm.02-32.001-.02.001c.014 0 .02-.001.02-.001z" fill="#acebe2"/><path d="m256 64c-17.645 0-32-14.355-32-32s14.355-32 32-32 32 14.355 32 32-14.355 32-32 32zm0-32c-.014 0-.02.001-.02.001z" fill="#acebe2"/></g></svg>