<?xml version="1.0" encoding="iso-8859-1"?>
<!-- Generator: Adobe Illustrator 21.0.0, SVG Export Plug-In . SVG Version: 6.00 Build 0)  -->
<svg xmlns="http://www.w3.org/2000/svg" xmlns:xlink="http://www.w3.org/1999/xlink" version="1.1" id="Capa_1" x="0px" y="0px" viewBox="0 0 512.002 512.002" style="enable-background:new 0 0 512.002 512.002;" xml:space="preserve" width="512" height="512">
<g>
	<g>
		<path style="fill-rule:evenodd;clip-rule:evenodd;fill:#D5D5D5;" d="M256.001,10c-99,0-180,81-180,180v252.002h360V190    C436.001,91,355.001,10,256.001,10L256.001,10z M176.001,362.001h160v40h-160V362.001z"/>
		<path style="fill-rule:evenodd;clip-rule:evenodd;fill:#999999;" d="M436.001,442.001h-360l-10,0c-16.5,0-30,13.5-30,30v30h440    v-30c0-16.5-13.5-30-30-30L436.001,442.001z"/>
		<rect x="176.001" y="362.001" style="fill-rule:evenodd;clip-rule:evenodd;fill:#666666;" width="160" height="40"/>
	</g>
	<g>
		<path d="M446.001,432.001V190c0-50.552-19.818-98.21-55.804-134.196C354.211,19.818,306.553,0,256.001,0    c-35.787,0-70.724,10.128-101.033,29.288c-4.668,2.952-6.06,9.129-3.109,13.797c2.952,4.667,9.129,6.062,13.797,3.109    C192.762,29.058,224.003,20,256.001,20c93.738,0,170,76.262,170,170v242.001h-340V190c0-32.004,9.058-63.245,26.194-90.346    c2.951-4.668,1.561-10.845-3.107-13.797c-4.671-2.953-10.846-1.56-13.797,3.107C76.129,119.27,66.001,154.207,66.001,190v242.001    c-22.056,0-40,17.944-40,40v30.001c0,5.522,4.478,10,10,10h440c5.522,0,10-4.478,10-10v-30.001    C486.001,449.945,468.057,432.001,446.001,432.001z M466.001,492.002h-420v-20.001c0-11.028,8.972-20,20-20h380    c11.028,0,20,8.972,20,20V492.002z"/>
		<path d="M166.001,362.001v40c0,5.522,4.478,10,10,10h160c5.522,0,10-4.478,10-10v-40c0-5.522-4.478-10-10-10h-160    C170.479,352.001,166.001,356.479,166.001,362.001z M186.001,372.001h140v20h-140V372.001z"/>
		<path d="M236.005,322c0,5.522,4.478,10,10,10h59.996c5.522,0,10-4.478,10-10s-4.478-10-10-10h-59.996    C240.482,312,236.005,316.478,236.005,322z"/>
		<path d="M216.009,322c0-5.522-4.478-10-10-10h-0.008c-5.522,0-9.996,4.478-9.996,10s4.481,10,10.004,10    S216.009,327.522,216.009,322z"/>
		<path d="M128.721,72.719c2.561,0,5.122-0.977,7.075-2.93c3.905-3.905,3.905-10.237,0-14.143c-3.906-3.904-10.236-3.904-14.143,0    l-0.005,0.005c-3.905,3.905-3.902,10.234,0.003,14.14C123.604,71.743,126.162,72.719,128.721,72.719z"/>
		<path d="M225.356,187.551c0-19.121-15.557-34.678-34.678-34.678h-24.678c-5.522,0-10,4.478-10,10v83.125c0,5.522,4.478,10,10,10    s10-4.478,10-10v-23.77h8.905l16.61,28.77c1.853,3.208,5.213,5.002,8.67,5.002c1.696,0,3.416-0.433,4.99-1.342    c4.783-2.762,6.422-8.877,3.66-13.66l-12.888-22.322C217.433,213.019,225.356,201.195,225.356,187.551z M176.001,172.873h14.678    c8.094,0,14.678,6.584,14.678,14.678s-6.584,14.678-14.678,14.678h-14.678V172.873z"/>
		<path d="M256.002,255.998c5.522,0,10-4.478,10-10v-83.125c0-5.522-4.478-10-10-10s-10,4.478-10,10v83.125    C246.002,251.521,250.479,255.998,256.002,255.998z"/>
		<path d="M321.324,152.873h-24.678c-5.522,0-10,4.478-10,10v83.125c0,5.522,4.478,10,10,10s10-4.478,10-10v-23.77h14.678    c19.121,0,34.678-15.557,34.678-34.678S340.445,152.873,321.324,152.873z M321.324,202.229h-14.678v-29.355h14.678    c8.094,0,14.678,6.584,14.678,14.678S329.418,202.229,321.324,202.229z"/>
		<path d="M345.994,235.997c-5.522,0-9.996,4.478-9.996,10s4.481,10,10.004,10s10-4.478,10-10s-4.478-10-10-10H345.994z"/>
	</g>
</g>















</svg>
