<svg id="Layer_1" enable-background="new 0 0 512 512" height="512" viewBox="0 0 512 512" width="512" xmlns="http://www.w3.org/2000/svg"><g><g><g><path d="m256 40c-88.366 0-160 71.634-160 160v240 48h160v-48h96c35.346 0 64-28.654 64-64v-176c0-88.366-71.634-160-160-160z" fill="#fab991"/></g><g><path d="m256 488h-160c0-26.51 21.49-48 48-48h112z" fill="#f0915a"/></g><g><path d="m352 24h-144c-79.529 0-144 64.471-144 144v208c0 17.673 14.327 32 32 32h80c17.673 0 32-14.327 32-32v-80c26.51 0 48-21.49 48-48 0-26.51 21.49-48 48-48h112c17.673 0 32-14.327 32-32v-48c0-53.019-42.981-96-96-96z" fill="#555a6e"/></g><g><path d="m208 248c-26.51 0-48 21.49-48 48s21.49 48 48 48z" fill="#f0915a"/></g></g><g><g><path d="m368 344c-13.255 0-24-10.745-24-24v-56c26.51 0 48 21.49 48 48v8c0 13.255-10.745 24-24 24z" fill="#f0915a"/></g><g><circle cx="384" cy="248" fill="#463c4b" r="16"/></g><g><circle cx="304" cy="248" fill="#463c4b" r="16"/></g></g><g><path d="m344 392h16c13.255 0 24-10.745 24-24h-64c0 13.255 10.745 24 24 24z" fill="#463c4b"/></g></g></svg>