<?xml version="1.0" encoding="iso-8859-1"?>
<!-- Generator: Adobe Illustrator 19.0.0, SVG Export Plug-In . SVG Version: 6.00 Build 0)  -->
<svg version="1.1" id="Capa_1" xmlns="http://www.w3.org/2000/svg" xmlns:xlink="http://www.w3.org/1999/xlink" x="0px" y="0px"
	 viewBox="0 0 468.293 468.293" style="enable-background:new 0 0 468.293 468.293;" xml:space="preserve">
<path style="fill:#3A556A;" d="M137.139,468.293l-0.852-0.133c-7.138-1.119-19.044-6.665-25.451-19.796
	c-2.903-5.949-6.938-11.358-12.626-14.743c-7.045-4.193-13.921-10.61-15.435-20.042c-1.55-9.66,2.819-19.308,13.29-29.184
	c9.624-9.076,15.507-21.413,15.507-34.642v0c0-1.461-1.233-2.619-2.691-2.528l-42.049,2.637c-0.868,0.057-1.767,0.087-2.66,0.087
	c-13.011,0-25.356-6.258-33.021-16.739c-13.59-18.863-13.822-37.179-0.749-50.477c7.216-9.954,23.257-37.991,17.616-57.982
	c-2.641-9.356-9.859-16.276-22.069-21.162c-8.733-3.493-15.611-10.484-18.868-19.174c-3.211-8.571-2.684-17.775,1.485-25.921
	c5.619-10.957,12.272-21.682,19.777-31.882C60.448,82.813,121.336,30.58,229.009,30.58c26.216,0,54.283,3.171,83.419,9.429
	c13.262,2.868,25.434,8.06,36.191,15.438c30.131,20.678,98.072,81.487,78.295,199.306l-0.111,0.666l-0.192,0.647
	c-0.557,1.888-14.445,46.905-80.24,105.947c-1.74,1.58-3.201,3.301-4.294,5.065l-30.202,48.761
	c-5.692,9.218-13.706,16.758-23.165,21.79l-43.334,23.354c-7.933,4.24-16.761,6.718-25.562,7.183
	c-1.163,0.068-2.367,0.127-3.577,0.127H137.139z"/>
<path style="fill:#E1E6E9;" d="M415.99,252.93c0,0-12.781,43.187-77.037,100.849c-2.393,2.218-4.61,4.669-6.303,7.47l-30.173,48.732
	c-4.669,7.529-11.147,13.715-18.968,17.859l-43.363,23.403c-6.478,3.444-13.598,5.486-20.894,5.836
	c-0.992,0.058-2.043,0.117-3.035,0.117h-78.205c0,0-12.438-1.942-17.951-15.299c-2.895-7.014-7.574-13.233-14.308-16.729
	c-10.603-5.504-21.426-16.539,0.743-35.263c8.871-7.529,14.416-18.15,15.816-29.531c0.233-1.868,0.35-3.735,0.35-5.661v-16.75
	c0-1.459-1.226-2.626-2.685-2.509l-1.167,0.058l-52.701,3.268c-10.155,0.7-19.96-3.852-26.029-12.139
	c-7.412-10.272-13.482-24.804-1.284-36.651c0,0,53.693-71.726-8.754-96.705c-11.906-4.727-17.45-18.384-11.614-29.764
	c4.494-8.754,10.622-19.201,18.851-30.348C74.808,81.93,154.763,17.499,310.122,50.824c11.497,2.51,22.527,7.12,32.216,13.773
	C373.619,86.016,434.432,142.977,415.99,252.93z"/>
<g>
	<path style="fill:#64798A;" d="M199.352,353.312c-6.42,3.735-13.657,6.711-21.068,6.128c-2.568-0.175-5.136-0.817-7.704-1.167
		c-8.813-1.109-17.625,1.342-26.38,2.685c-6.712,0.992-14.999,1.342-21.886-0.584c0.233-1.868,0.35-3.735,0.35-5.661v-16.75
		c0-1.459-1.226-2.626-2.685-2.509l-1.167,0.058c0.467-0.467,1.05-0.817,1.634-1.167c6.245-3.677,13.715-4.202,20.952-4.144
		c7.178,0.117,14.532,0.759,21.535-0.759c1.867-0.409,3.677-0.934,5.544-0.876c1.984,0.058,3.852,0.817,5.836,1.167
		c3.093,0.584,6.303,0.234,9.455,0.525c5.428,0.525,10.505,2.977,15.466,5.369c3.151,1.576,6.653,3.502,7.412,6.945
		C207.697,347.126,203.379,350.978,199.352,353.312z"/>
	<path style="fill:#64798A;" d="M269.463,293.241c-4.707,0-9.372-0.465-13.86-1.38c-34.946-7.052-60.324-39.793-60.324-77.849
		c0-38.052,25.377-70.794,60.342-77.852c4.479-0.909,9.14-1.374,13.842-1.374c40.905,0,74.184,35.541,74.184,79.226
		C343.647,257.7,310.368,293.241,269.463,293.241z"/>
</g>
<path style="fill:#3A556A;" d="M260.384,287.654c-4.131,0-8.225-0.387-12.164-1.15c-30.67-5.874-52.941-33.145-52.941-64.843
	c0-31.695,22.272-58.966,52.958-64.846c3.931-0.758,8.022-1.144,12.148-1.144c35.899,0,65.105,29.604,65.105,65.99
	C325.489,258.051,296.283,287.654,260.384,287.654z"/>
<path style="fill:#F6A74B;" d="M317.177,221.663c0,31.86-25.433,57.68-56.794,57.68c-3.602,0-7.148-0.332-10.583-0.997
	c-26.319-5.042-46.211-28.48-46.211-56.683c0-28.203,19.892-51.641,46.211-56.683c3.435-0.665,6.981-0.997,10.583-0.997
	C291.745,163.982,317.177,189.803,317.177,221.663z"/>
<ellipse style="fill:#FCD462;" cx="249.8" cy="221.659" rx="46.211" ry="56.695"/>
<path style="fill:#EBF0F3;" d="M232.549,200.031c-8.585,9.678-10.792,19.7-13.245,17.524c-2.453-2.176-4.222-15.724,4.363-25.402
	c8.585-9.678,24.273-11.821,26.725-9.646C252.845,184.683,241.134,190.353,232.549,200.031z"/>
<circle style="fill:#3A556A;" cx="266.178" cy="221.659" r="11.083"/>
<path style="fill:#64798A;" d="M67.848,284.271c-3.516,0-7-0.347-10.352-1.031c-26.102-5.267-45.056-29.722-45.056-58.146
	c0-28.421,18.955-52.876,45.07-58.148c3.346-0.679,6.827-1.026,10.338-1.026c30.553,0,55.409,26.546,55.409,59.174
	C123.257,257.725,98.401,284.271,67.848,284.271z"/>
<path style="fill:#3A556A;" d="M61.067,280.098c-3.086,0-6.143-0.289-9.085-0.859c-22.907-4.387-39.542-24.756-39.542-48.432
	c0-23.673,16.635-44.043,39.554-48.434c2.936-0.566,5.992-0.855,9.073-0.855c26.813,0,48.628,22.111,48.628,49.288
	C109.695,257.987,87.881,280.098,61.067,280.098z"/>
<path style="fill:#F6A74B;" d="M103.487,230.809c0,23.796-18.996,43.082-42.42,43.082c-2.69,0-5.339-0.248-7.904-0.745
	c-19.658-3.766-34.515-21.272-34.515-42.337c0-21.065,14.857-38.571,34.515-42.337c2.566-0.497,5.214-0.745,7.904-0.745
	C84.491,187.727,103.487,207.012,103.487,230.809z"/>
<ellipse style="fill:#FCD462;" cx="53.136" cy="230.806" rx="34.516" ry="42.34"/>
<path style="fill:#EBF0F3;" d="M40.277,214.652c-6.412,7.229-8.061,14.714-9.893,13.089c-1.832-1.625-3.153-11.744,3.259-18.973
	c6.412-7.229,18.129-8.829,19.961-7.205C55.436,203.188,46.689,207.423,40.277,214.652z"/>
<circle style="fill:#3A556A;" cx="54.297" cy="225.268" r="6.924"/>
<path style="fill:#D5D6DB;" d="M415.988,252.919c0,0-12.799,43.219-77.018,100.844c-2.438,2.216-4.599,4.71-6.316,7.48
	l-30.198,48.76c-4.654,7.535-11.137,13.686-18.95,17.841l-43.385,23.383c-6.428,3.435-13.575,5.485-20.889,5.873
	c2.937-6.095,8.533-10.916,13.852-15.459c24.546-21.055,47.264-44.216,67.82-69.205c3.103-3.768,6.261-7.757,7.813-12.411
	c1.496-4.377,1.496-9.198,2.327-13.741c3.546-19.061,20.612-31.915,32.857-46.931c8.422-10.361,14.849-22.274,21.166-34.021
	c12.467-23.327,25.266-50.865,14.573-75.079c-7.203-16.401-24.435-28.48-26.153-46.322c-0.775-8.034,1.663-17.177-3.213-23.715
	c-2.826-3.768-7.48-5.651-11.858-7.314c-23.937-9.254-47.818-18.507-71.754-27.76c-13.464-5.208-27.926-10.472-42-7.369
	c-9.918,2.161-18.673,8.367-28.646,10.195c-7.591,1.385-15.57,0.166-22.939,2.438c-8.865,2.826-15.293,10.14-21.997,16.567
	c-24.269,23.327-60.063,36.902-93.696,31.86c-6.483-0.942-14.24-2.383-20.113-5.652C74.836,81.928,154.791,17.488,310.102,50.844
	c11.525,2.493,22.551,7.092,32.248,13.741C373.6,86.028,434.439,142.989,415.988,252.919z"/>
<path style="fill:#64798A;" d="M106.475,158.066c6.006,0.938,11.624,3.477,17.429,5.278c14.149,4.39,30.16,4.174,43.16-2.93
	c6.82-3.727,12.534-9.14,18.637-13.953c6.56-5.174,13.612-9.685,20.651-14.186c3.722-2.38,7.48-4.778,11.624-6.309
	c7.152-2.642,15.293-2.5,22.349,0.389c0.645,0.264,1.379,0.685,1.41,1.381c0.034,0.771-0.804,1.25-1.518,1.545
	c-7.147,2.954-14.294,5.907-21.441,8.86c-3.969,1.64-7.942,3.282-11.784,5.201c-11.968,5.978-22.445,14.529-33.94,21.372
	c-11.495,6.843-24.737,12.069-38,10.315c-7.74-1.023-14.9-4.303-22.065-7.215c-3.621-1.471-7.262-2.934-11.038-3.964
	c-3.419-0.933-7.693-0.785-10.749-1.963C92.488,157.077,102.736,157.482,106.475,158.066z"/>
<path style="fill:#D5D6DB;" d="M127.695,141.822c2.713,0.424,5.251,1.571,7.873,2.384c6.391,1.983,13.624,1.886,19.497-1.323
	c3.081-1.684,5.662-4.129,8.419-6.303c2.963-2.337,6.149-4.375,9.329-6.408c1.681-1.075,3.379-2.159,5.251-2.85
	c3.231-1.193,6.908-1.129,10.095,0.176c0.291,0.119,0.623,0.309,0.637,0.624c0.015,0.348-0.363,0.565-0.686,0.698
	c-3.228,1.334-6.457,2.668-9.685,4.003c-1.793,0.741-3.587,1.483-5.323,2.35c-5.406,2.7-10.139,6.563-15.332,9.654
	c-5.193,3.091-11.175,5.452-17.165,4.66c-3.496-0.462-6.731-1.944-9.967-3.259c-1.636-0.665-3.28-1.325-4.986-1.791
	c-1.545-0.421-3.475-0.354-4.855-0.887C121.377,141.375,126.006,141.558,127.695,141.822z"/>
<path style="fill:#64798A;" d="M155.017,235.117c0,0-13.1,28.395-19.242,36.751c-5.473,7.446-7.132,17.179-0.91,24.012
	c6.642,7.293,17.94,7.492,24.835,0.596l0,0v-63.299C158.005,233.177,156.31,233.824,155.017,235.117z"/>
<path style="fill:#3A556A;" d="M183.625,271.868c-6.142-8.356-19.242-36.751-19.242-36.751c-1.293-1.293-2.988-1.94-4.683-1.94
	v63.299c6.896,6.896,18.193,6.697,24.835-0.596C190.757,289.047,189.098,279.314,183.625,271.868z"/>
<path style="fill:#E56353;" d="M131.21,375.804c2.711-2.168,5.467-4.363,8.563-5.531c2.618-0.988,5.39-1.204,8.13-1.161
	c3.861,0.061,7.779,0.646,11.314,2.544s6.667,5.232,8.095,9.613c9.112-13.88,26.596-18.303,39.474-9.986
	c6.729,4.346,12.314,12.441,12.594,21.73c0.051,1.7-0.107,3.518-0.968,4.855c-0.679,1.054-1.707,1.673-2.722,2.187
	c-5.394,2.73-11.315,3.418-17.14,3.921c-13.204,1.139-26.455,1.477-39.686,1.012c-9.45-0.332-19.065-1.118-27.892-5.254
	c-2.704-1.267-18.832-2.856-18.466-5.789c0.356-2.852,8.322-9.836,10.034-11.205C125.431,380.427,128.321,378.116,131.21,375.804z"
	/>
<g>
	<path style="fill:#E1E6E9;" d="M156.387,381.619h-16.365c-1.758,0-3.116,1.542-2.895,3.286l2.176,17.122h17.803l2.176-17.122
		C159.504,383.162,158.145,381.619,156.387,381.619z"/>
	<path style="fill:#E1E6E9;" d="M203.495,397.784l-7.295,2.393l-11.147,3.677l-8.171-17.275c-0.759-1.576,0-3.502,1.693-4.027
		l10.738-3.56l6.77-2.218c1.692-0.525,3.443,0.525,3.793,2.218L203.495,397.784z"/>
	<path style="fill:#E1E6E9;" d="M151.437,331.368v20.368h-11.439c-1.751,0-3.093-1.517-2.86-3.268l2.159-17.1H151.437z"/>
	<path style="fill:#E1E6E9;" d="M190.333,353.808l-15.548-5.104c-1.67-0.548-2.48-2.437-1.726-4.025l7.407-15.59l16.915,5.552
		l-3.273,16.947C193.774,353.314,192.002,354.356,190.333,353.808z"/>
</g>
<g>
	<path style="fill:#3A556A;" d="M184.084,2.559c-1.442-0.742-8.967-3.515-10.268-2.219c-2.332,2.323,3.673,4.505,5.107,5.396
		c0.46,0.275,0.928,0.557,1.28,0.962c1.318,1.52,0.447,3.846-0.403,5.67c-1.998,4.291-3.58,8.776-4.714,13.371
		c-0.367,1.485-0.688,3.032-0.399,4.535c0.271,1.406,1.053,2.652,1.819,3.862c2.214,3.491,4.428,6.983,6.642,10.474
		c1.169-0.653,2.339-1.307,3.509-1.96c0.273-0.152,0.566-0.327,0.679-0.619c0.124-0.32-0.007-0.675-0.138-0.992
		c-1.386-3.376-2.771-6.752-4.157-10.128c-0.47-1.145-1.194-2.478-2.432-2.518c4.646-6.094,7.52-13.521,8.188-21.154
		C187.753,5.246,186.083,3.588,184.084,2.559z"/>
	<path style="fill:#3A556A;" d="M342.729,9.492c-3.289,0.141-0.328,5.803,0.13,7.429c0.154,0.513,0.31,1.037,0.296,1.573
		c-0.052,2.011-2.265,3.141-4.122,3.914c-4.37,1.82-8.562,4.064-12.5,6.691c-1.273,0.849-2.554,1.775-3.354,3.078
		c-0.749,1.221-1.012,2.668-1.262,4.078c-0.721,4.071-1.441,8.142-2.162,12.213c1.304,0.307,2.608,0.614,3.913,0.92
		c0.305,0.072,0.639,0.14,0.919,0.001c0.307-0.153,0.45-0.504,0.567-0.826c1.254-3.427,2.508-6.854,3.763-10.281
		c0.425-1.163-0.459-2.316-0.097-3.5c2.243-7.327,14.672-4.909,20.314-10.094c0.574-2.174,0.46-4.525-0.322-6.633
		C348.249,16.535,344.564,9.413,342.729,9.492z"/>
	<path style="fill:#3A556A;" d="M461.959,166.734c-2.943-1.475-3.107,4.912-3.497,6.556c-0.115,0.523-0.234,1.057-0.506,1.519
		c-1.023,1.732-3.506,1.644-5.505,1.417c-4.703-0.534-9.458-0.61-14.177-0.228c-1.525,0.123-3.094,0.31-4.427,1.06
		c-1.248,0.702-2.181,1.839-3.085,2.95c-2.609,3.207-5.217,6.415-7.826,9.622c0.991,0.902,1.982,1.804,2.972,2.706
		c0.231,0.211,0.49,0.433,0.803,0.447c0.342,0.016,0.638-0.222,0.897-0.446c2.762-2.386,5.524-4.771,8.285-7.156
		c0.937-0.809,0.725-2.247,1.616-3.105c5.521-5.313,15.209,2.841,22.66,1.052c1.558-1.621,2.601-3.731,2.942-5.953
		C463.359,175.573,463.601,167.558,461.959,166.734z"/>
	<path style="fill:#3A556A;" d="M247.354,6.641c0,0,13.172,12.883,7.776,30.366C255.13,37.007,276.189,9.402,247.354,6.641z"/>
	<path style="fill:#3A556A;" d="M107.601,34.946c0,0,18.386,1.193,25.682,17.973C133.283,52.919,131.276,18.256,107.601,34.946z"/>
	<path style="fill:#3A556A;" d="M377.579,49.47c0,0,5.014,17.73-8.367,30.209C369.212,79.679,401.215,66.214,377.579,49.47z"/>
	<path style="fill:#3A556A;" d="M396.484,115.312c0,0,13.852-12.148,30.872-5.429C427.355,109.883,401.441,86.774,396.484,115.312z"
		/>
</g>
<g>
	<path style="fill:#D5D6DB;" d="M159.257,348.468c0.233,1.751-1.109,3.268-2.86,3.268h-4.961v-20.368h5.661L159.257,348.468z"/>
	<path style="fill:#D5D6DB;" d="M203.495,397.784l-7.295,2.393l-6.887-21.185l6.77-2.218c1.692-0.525,3.443,0.525,3.793,2.218
		L203.495,397.784z"/>
</g>
<path style="fill:#3A556A;" d="M105.565,326.879c13.174-0.151,25.164-3.732,38.337-3.883c9.887-0.113,19.846-0.221,29.576,1.494
	c10.573,1.863,20.614,5.832,30.567,9.775c8.407,3.331,17.181,6.919,22.914,13.77c5.936,7.093,7.714,16.808,6.834,25.918
	c-0.88,9.11-4.157,17.815-7.405,26.401c-0.843,2.229-1.731,4.528-3.43,6.233c-3.376,3.388-8.836,3.478-13.681,3.321
	c-36.736-1.186-73.435-3.433-110.034-6.736c-3.109-0.281-6.858-1.036-7.855-3.917c-1.506-4.353,4.65-7.225,9.339-7.733
	c30.089-3.26,60.344,2.171,90.453,5.259c10.019,1.028,22.376,0.675,27.241-7.916c2.238-3.952,2.191-8.724,1.79-13.22
	c-0.815-9.152-3.041-18.58-9.05-25.661c-10.497-12.369-28.978-14.134-45.445-14.741c-27.096-0.999-51.8,8.693-78.915,8.891
	c-5.043,0.037-32.043-0.313-16.022-6.861C81.455,332.91,94.228,327.008,105.565,326.879z"/>
<g>
</g>
<g>
</g>
<g>
</g>
<g>
</g>
<g>
</g>
<g>
</g>
<g>
</g>
<g>
</g>
<g>
</g>
<g>
</g>
<g>
</g>
<g>
</g>
<g>
</g>
<g>
</g>
<g>
</g>
</svg>
